<svg width="48" height="48" viewBox="0 0 48 48" xmlns="http://www.w3.org/2000/svg">
  <defs>
    <linearGradient id="reuseGradient" x1="0%" y1="0%" x2="100%" y2="100%">
      <stop offset="0%" style="stop-color:#2D5016;stop-opacity:1" />
      <stop offset="100%" style="stop-color:#4A7C59;stop-opacity:1" />
    </linearGradient>
  </defs>
  
  <!-- Circular arrows for reuse -->
  <path d="M24 8 A16 16 0 0 1 38 18 L34 18 L40 24 L34 30 L38 30 A16 16 0 0 1 24 40" fill="none" stroke="url(#reuseGradient)" stroke-width="3"/>
  <path d="M24 40 A16 16 0 0 1 10 30 L14 30 L8 24 L14 18 L10 18 A16 16 0 0 1 24 8" fill="none" stroke="url(#reuseGradient)" stroke-width="3"/>
  
  <!-- Arrow heads -->
  <polygon points="34,18 38,22 34,26" fill="url(#reuseGradient)"/>
  <polygon points="14,30 10,26 14,22" fill="url(#reuseGradient)"/>
  
  <!-- Nail in center -->
  <ellipse cx="24" cy="24" rx="4" ry="6" fill="#E8B4B8" opacity="0.8"/>
</svg> 