<svg width="48" height="48" viewBox="0 0 48 48" xmlns="http://www.w3.org/2000/svg">
  <defs>
    <linearGradient id="applyGradient" x1="0%" y1="0%" x2="100%" y2="100%">
      <stop offset="0%" style="stop-color:#E8B4B8;stop-opacity:1" />
      <stop offset="100%" style="stop-color:#8B2635;stop-opacity:1" />
    </linearGradient>
  </defs>
  
  <!-- Hand outline -->
  <path d="M16 36 C16 32, 18 30, 20 30 C22 30, 24 32, 24 36 L24 40 C24 42, 22 44, 20 44 C18 44, 16 42, 16 40 Z" fill="#F5E6E8"/>
  
  <!-- Fingers -->
  <ellipse cx="18" cy="26" rx="2" ry="6" fill="#F5E6E8"/>
  <ellipse cx="22" cy="24" rx="2" ry="8" fill="#F5E6E8"/>
  <ellipse cx="26" cy="26" rx="2" ry="6" fill="#F5E6E8"/>
  <ellipse cx="30" cy="28" rx="2" ry="5" fill="#F5E6E8"/>
  
  <!-- Press-on nails -->
  <ellipse cx="18" cy="22" rx="1.5" ry="4" fill="url(#applyGradient)"/>
  <ellipse cx="22" cy="20" rx="1.5" ry="4" fill="url(#applyGradient)"/>
  <ellipse cx="26" cy="22" rx="1.5" ry="4" fill="url(#applyGradient)"/>
  <ellipse cx="30" cy="24" rx="1.5" ry="3" fill="url(#applyGradient)"/>
  
  <!-- Application motion lines -->
  <path d="M14 14 L18 18" stroke="#8B2635" stroke-width="2" opacity="0.6"/>
  <path d="M12 16 L16 20" stroke="#8B2635" stroke-width="1" opacity="0.4"/>
  <path d="M10 18 L14 22" stroke="#8B2635" stroke-width="1" opacity="0.4"/>
</svg> 