<?xml version="1.0" encoding="utf-8"?>
<!-- Generator: Adobe Illustrator 25.0.1, SVG Export Plug-In . SVG Version: 6.00 Build 0)  -->
<svg version="1.1" id="Слой_1" xmlns="http://www.w3.org/2000/svg" xmlns:xlink="http://www.w3.org/1999/xlink" x="0px" y="0px"
	 viewBox="0 0 991 421" style="enable-background:new 0 0 991 421;" xml:space="preserve">
<style type="text/css">
	.st0{fill:url(#SVGID_1_);stroke:#1D1D1B;stroke-miterlimit:10;}
	.st1{fill:#111111;}
	.st2{fill:#943341;}
	.st3{fill:url(#SVGID_2_);stroke:#1D1D1B;stroke-miterlimit:10;}
</style>
<radialGradient id="SVGID_1_" cx="381.6" cy="167.25" r="562.9263" gradientTransform="matrix(1 0 0 -1 0 422)" gradientUnits="userSpaceOnUse">
	<stop  offset="0" style="stop-color:#FFFFFF"/>
	<stop  offset="1" style="stop-color:#ECECEC"/>
</radialGradient>
<polygon class="st0" points="894,267 894,296 889,314 872,337 842,350 783,346 755,328 734,341 641,348 623,340 602,316 596,340 
	581,349 538,346 532,340 529,321 524,319 510,334 489,346 437,351 399,339 367,301 362,334 348,345 293,342 273,347 230,346 
	210,337 191,308 172,333 155,343 135,348 97,348 59,333 46,318 40,300 44,279 62,269 43,239 42,204 49,186 65,170 93,159 132,159 
	172,175 195,161 199,138 212,129 251,130 261,137 264,158 269,164 294,168 295,122 305,109 319,103 348,104 368,124 370,151 
	363,169 367,209 398,173 437,159 470,159 490,164 526,189 529,120 539,106 555,101 582,102 596,111 601,185 630,164 677,163 
	682,158 684,93 698,83 723,76 745,76 757,86 757,158 795,138 829.4,139.4 836.3,150.9 873.2,212.5 880.3,224.5 871,228 886,247 "/>
<polygon class="st1" points="883,273 881,298 871,319 854,333 835,339 804,338 777,329 758,309 753,292 753,281 756,278 786,274 
	792,275 799,290 812,299 823,299 833,289 831,279 825,273 786,251 769,237 759,218 758,200 764,175 778,160 801,149 834,150 
	836.3,150.9 873.2,212.5 862,213 847,211 834,195 826,191 816,191 808,197 807,205 814,212 851,232 868,245 "/>
<g>
	<path class="st2" d="M320,176l-9,3l-5,6l-2,140l5,7l24,3l13-2l6-6l1-142l-10-8L320,176z"/>
	<path class="st2" d="M445,170l-20,4l-15,7l-20,19l-14,31l-2,40l4,18l8,17l19,21l26,11l28,2l25-6l17-10l17-21l6-23l-5-5h-39l-7,11
		l-13,10l-13,1l-10-4l-9-9l-5-17v-24l6-18l11-10l9-2l14,3l16,19l42-1l3-3v-8l-8-20l-17-19l-22-11L445,170z"/>
	<path class="st2" d="M91,172l-17,8l-15,15l-6,14l3,29l15,19l12,7l46,15l5,5v6l-9,9l-12,2l-11-4l-13-14l-30,2l-7,3l1,15l15,20l16,9
		l20,5l35-2l20-9l16-16l4-12v-29l-6-11l-14-11l-52-18l-7-6l-1-6l7-9l9-2l9,2l14,13h30l6-3v-11l-8-16l-11-10l-14-7l-16-4L91,172z"/>
	<path class="st2" d="M212,141l-4,7v26l-19,3l-4,6l1,30l5,5h13l3,3l1,92l13,16l12,5l30,2l20-3l4-5v-31l-4-4h-21l-8-5l-3-8l1-61l34-5
		l1-31l-8-6l-26-3v-26l-4-6L212,141z"/>
	<path class="st2" d="M324,114l-8,3l-8,8l-5,14l1,12l11,14l13,5l11-1l9-5l10-14l-1-20l-6-9l-9-6L324,114z"/>
	<path class="st2" d="M546,117l-6,7l1,208l11,6h22l13-6v-54l4-5l44,60l12,4l36-3l3-3l-3-11l-50-72l37-55l6-17l-7-3l-33,2l-11,5
		l-35,51l-3-8l-1-106l-18-5L546,117z"/>
	<path class="st2" d="M743,87l-29,4l-16,6l-6,7l5,92l-1,123l2,7l9,5h14l18-6l2-152l6-80L743,87z"/>
	<polygon class="st2" points="883,273 881,298 871,319 854,333 835,339 804,338 777,329 758,309 753,292 753,281 756,278 786,274 
		792,275 799,290 812,299 823,299 833,289 831,279 825,273 786,251 769,237 759,218 758,200 764,175 778,160 801,149 834,150 
		836.3,150.9 873.2,212.5 862,213 847,211 834,195 826,191 816,191 808,197 807,205 814,212 851,232 868,245 	"/>
</g>
<linearGradient id="SVGID_2_" gradientUnits="userSpaceOnUse" x1="965.4832" y1="1416.7327" x2="992.8748" y2="1432.5471" gradientTransform="matrix(-1 0 0 1 1820.38 -1236.13)">
	<stop  offset="3.962053e-02" style="stop-color:#000000"/>
	<stop  offset="5.839310e-02" style="stop-color:#222222"/>
	<stop  offset="8.732502e-02" style="stop-color:#505050"/>
	<stop  offset="0.119" style="stop-color:#7A7A7A"/>
	<stop  offset="0.1526" style="stop-color:#9E9E9E"/>
	<stop  offset="0.1889" style="stop-color:#BCBCBC"/>
	<stop  offset="0.2285" style="stop-color:#D5D5D5"/>
	<stop  offset="0.2729" style="stop-color:#E8E8E8"/>
	<stop  offset="0.3248" style="stop-color:#F5F5F5"/>
	<stop  offset="0.3909" style="stop-color:#FDFDFD"/>
	<stop  offset="0.5203" style="stop-color:#FFFFFF"/>
	<stop  offset="0.6084" style="stop-color:#FCFCFC"/>
	<stop  offset="0.6721" style="stop-color:#F3F3F3"/>
	<stop  offset="0.7282" style="stop-color:#E3E3E3"/>
	<stop  offset="0.7799" style="stop-color:#CDCDCD"/>
	<stop  offset="0.8285" style="stop-color:#B0B0B0"/>
	<stop  offset="0.8749" style="stop-color:#8C8C8C"/>
	<stop  offset="0.9195" style="stop-color:#626262"/>
	<stop  offset="0.9615" style="stop-color:#323232"/>
	<stop  offset="1" style="stop-color:#000000"/>
</linearGradient>
<polygon class="st3" points="811,168.9 815,144.9 829.7,139.4 836.8,151.4 873.7,213 880.6,224.5 865,223.9 844,214.9 824,196.9 "/>
</svg>
