<svg xmlns="http://www.w3.org/2000/svg" width="991" height="421" viewBox="0 0 991 421">

  <defs>
    <!-- Outer soft drop shadow -->
    <filter id="dropShadow" x="-20%" y="-20%" width="140%" height="160%">
      <feGaussianBlur in="SourceAlpha" stdDeviation="6" result="blur"/>
      <feOffset dx="5" dy="6" result="offsetBlur"/>
      <feComponentTransfer>
        <feFuncA type="linear" slope="0.35"/>
      </feComponentTransfer>
      <feMerge>
        <feMergeNode in="offsetBlur"/>
        <feMergeNode in="SourceGraphic"/>
      </feMerge>
    </filter>

    <!-- Inner shadow for the white sticker -->
    <filter id="innerShadow" x="-20%" y="-20%" width="140%" height="140%">
      <feOffset dx="0" dy="2" />
      <feGaussianBlur stdDeviation="2" result="blur"/>
      <feComposite in2="SourceAlpha" operator="arithmetic" k2="-1" k3="1" result="invshadow"/>
      <feColorMatrix type="matrix" values="0 0 0 0 0
                                           0 0 0 0 0
                                           0 0 0 0 0
                                           0 0 0 0.45 0" result="shadow"/>
      <feComposite in="shadow" in2="SourceGraphic" operator="over"/>
    </filter>

    <!-- Slight radial highlight for sticker paper -->
    <radialGradient id="paperGrad" cx="40%" cy="35%" r="75%">
      <stop offset="0%" stop-color="#FFFFFF"/>
      <stop offset="100%" stop-color="#ECECEC"/>
    </radialGradient>
  </defs>

  <path d="M899.00,195.00 L886.00,167.00 L866.00,149.00 L845.00,140.00 L795.00,138.00 L757.00,158.00 L757.00,86.00 L745.00,76.00 L723.00,76.00 L698.00,83.00 L684.00,93.00 L682.00,158.00 L677.00,163.00 L630.00,164.00 L601.00,185.00 L596.00,111.00 L582.00,102.00 L555.00,101.00 L539.00,106.00 L529.00,120.00 L526.00,189.00 L490.00,164.00 L470.00,159.00 L437.00,159.00 L398.00,173.00 L367.00,209.00 L363.00,169.00 L370.00,151.00 L368.00,124.00 L348.00,104.00 L319.00,103.00 L305.00,109.00 L295.00,122.00 L294.00,168.00 L269.00,164.00 L264.00,158.00 L261.00,137.00 L251.00,130.00 L212.00,129.00 L199.00,138.00 L195.00,161.00 L172.00,175.00 L132.00,159.00 L93.00,159.00 L65.00,170.00 L49.00,186.00 L42.00,204.00 L43.00,239.00 L62.00,269.00 L44.00,279.00 L40.00,300.00 L46.00,318.00 L59.00,333.00 L97.00,348.00 L135.00,348.00 L155.00,343.00 L172.00,333.00 L191.00,308.00 L210.00,337.00 L230.00,346.00 L273.00,347.00 L293.00,342.00 L348.00,345.00 L362.00,334.00 L367.00,301.00 L399.00,339.00 L437.00,351.00 L489.00,346.00 L510.00,334.00 L524.00,319.00 L529.00,321.00 L532.00,340.00 L538.00,346.00 L581.00,349.00 L596.00,340.00 L602.00,316.00 L623.00,340.00 L641.00,348.00 L734.00,341.00 L755.00,328.00 L783.00,346.00 L842.00,350.00 L872.00,337.00 L889.00,314.00 L894.00,296.00 L894.00,267.00 L886.00,247.00 L871.00,228.00 L895.00,219.00 Z" fill="url(#paperGrad)" filter="url(#dropShadow) url(#innerShadow)"/>
  <path d="M320.00,176.00 L311.00,179.00 L306.00,185.00 L304.00,325.00 L309.00,332.00 L333.00,335.00 L346.00,333.00 L352.00,327.00 L353.00,185.00 L343.00,177.00 Z" fill="#111111"/>
  <path d="M445.00,170.00 L425.00,174.00 L410.00,181.00 L390.00,200.00 L376.00,231.00 L374.00,271.00 L378.00,289.00 L386.00,306.00 L405.00,327.00 L431.00,338.00 L459.00,340.00 L484.00,334.00 L501.00,324.00 L518.00,303.00 L524.00,280.00 L519.00,275.00 L480.00,275.00 L473.00,286.00 L460.00,296.00 L447.00,297.00 L437.00,293.00 L428.00,284.00 L423.00,267.00 L423.00,243.00 L429.00,225.00 L440.00,215.00 L449.00,213.00 L463.00,216.00 L479.00,235.00 L521.00,234.00 L524.00,231.00 L524.00,223.00 L516.00,203.00 L499.00,184.00 L477.00,173.00 Z" fill="#111111"/>
  <path d="M91.00,172.00 L74.00,180.00 L59.00,195.00 L53.00,209.00 L56.00,238.00 L71.00,257.00 L83.00,264.00 L129.00,279.00 L134.00,284.00 L134.00,290.00 L125.00,299.00 L113.00,301.00 L102.00,297.00 L89.00,283.00 L59.00,285.00 L52.00,288.00 L53.00,303.00 L68.00,323.00 L84.00,332.00 L104.00,337.00 L139.00,335.00 L159.00,326.00 L175.00,310.00 L179.00,298.00 L179.00,269.00 L173.00,258.00 L159.00,247.00 L107.00,229.00 L100.00,223.00 L99.00,217.00 L106.00,208.00 L115.00,206.00 L124.00,208.00 L138.00,221.00 L168.00,221.00 L174.00,218.00 L174.00,207.00 L166.00,191.00 L155.00,181.00 L141.00,174.00 L125.00,170.00 Z" fill="#111111"/>
  <path d="M801.00,149.00 L778.00,160.00 L764.00,175.00 L758.00,200.00 L759.00,218.00 L769.00,237.00 L786.00,251.00 L825.00,273.00 L831.00,279.00 L833.00,289.00 L823.00,299.00 L812.00,299.00 L799.00,290.00 L792.00,275.00 L786.00,274.00 L756.00,278.00 L753.00,281.00 L753.00,292.00 L758.00,309.00 L777.00,329.00 L804.00,338.00 L835.00,339.00 L854.00,333.00 L871.00,319.00 L881.00,298.00 L883.00,273.00 L868.00,245.00 L851.00,232.00 L814.00,212.00 L807.00,205.00 L808.00,197.00 L816.00,191.00 L826.00,191.00 L834.00,195.00 L847.00,211.00 L862.00,213.00 L885.00,212.00 L888.00,202.00 L879.00,180.00 L857.00,159.00 L834.00,150.00 Z" fill="#111111"/>
  <path d="M212.00,141.00 L208.00,148.00 L208.00,174.00 L189.00,177.00 L185.00,183.00 L186.00,213.00 L191.00,218.00 L204.00,218.00 L207.00,221.00 L208.00,313.00 L221.00,329.00 L233.00,334.00 L263.00,336.00 L283.00,333.00 L287.00,328.00 L287.00,297.00 L283.00,293.00 L262.00,293.00 L254.00,288.00 L251.00,280.00 L252.00,219.00 L286.00,214.00 L287.00,183.00 L279.00,177.00 L253.00,174.00 L253.00,148.00 L249.00,142.00 Z" fill="#111111"/>
  <path d="M324.00,114.00 L316.00,117.00 L308.00,125.00 L303.00,139.00 L304.00,151.00 L315.00,165.00 L328.00,170.00 L339.00,169.00 L348.00,164.00 L358.00,150.00 L357.00,130.00 L351.00,121.00 L342.00,115.00 Z" fill="#111111"/>
  <path d="M546.00,117.00 L540.00,124.00 L541.00,332.00 L552.00,338.00 L574.00,338.00 L587.00,332.00 L587.00,278.00 L591.00,273.00 L635.00,333.00 L647.00,337.00 L683.00,334.00 L686.00,331.00 L683.00,320.00 L633.00,248.00 L670.00,193.00 L676.00,176.00 L669.00,173.00 L636.00,175.00 L625.00,180.00 L590.00,231.00 L587.00,223.00 L586.00,117.00 L568.00,112.00 Z" fill="#111111"/>
  <path d="M743.00,87.00 L714.00,91.00 L698.00,97.00 L692.00,104.00 L697.00,196.00 L696.00,319.00 L698.00,326.00 L707.00,331.00 L721.00,331.00 L739.00,325.00 L741.00,173.00 L747.00,93.00 Z" fill="#111111"/>
  <path d="M801.00,149.00 L778.00,160.00 L764.00,175.00 L758.00,200.00 L759.00,218.00 L769.00,237.00 L786.00,251.00 L825.00,273.00 L831.00,279.00 L833.00,289.00 L823.00,299.00 L812.00,299.00 L799.00,290.00 L792.00,275.00 L786.00,274.00 L756.00,278.00 L753.00,281.00 L753.00,292.00 L758.00,309.00 L777.00,329.00 L804.00,338.00 L835.00,339.00 L854.00,333.00 L871.00,319.00 L881.00,298.00 L883.00,273.00 L868.00,245.00 L851.00,232.00 L814.00,212.00 L807.00,205.00 L808.00,197.00 L816.00,191.00 L826.00,191.00 L834.00,195.00 L847.00,211.00 L862.00,213.00 L885.00,212.00 L888.00,202.00 L879.00,180.00 L857.00,159.00 L834.00,150.00 Z" fill="#000000"/>
  <path d="M582.00,58.00 L578.00,64.00 L580.00,70.00 L601.00,82.00 L633.00,115.00 L642.00,113.00 L653.00,95.00 L664.00,84.00 L699.00,63.00 L724.00,57.00 L759.00,62.00 L776.00,75.00 L788.00,109.00 L794.00,116.00 L810.00,115.00 L823.00,122.00 L871.00,122.00 L890.00,130.00 L913.00,156.00 L934.00,193.00 L934.00,211.00 L930.00,217.00 L926.00,198.00 L928.00,191.00 L920.00,189.00 L921.00,182.00 L918.00,183.00 L916.00,172.00 L923.00,208.00 L917.00,236.00 L920.00,264.00 L919.00,300.00 L907.00,333.00 L899.00,345.00 L879.00,363.00 L861.00,372.00 L835.00,378.00 L790.00,376.00 L755.00,363.00 L717.00,371.00 L646.00,376.00 L764.00,372.00 L801.00,379.00 L832.00,381.00 L872.00,371.00 L899.00,353.00 L914.00,334.00 L914.00,330.00 L916.00,333.00 L925.00,312.00 L928.00,263.00 L931.00,260.00 L929.00,259.00 L942.00,246.00 L951.00,215.00 L951.00,192.00 L947.00,180.00 L935.00,160.00 L932.00,149.00 L909.00,120.00 L890.00,107.00 L825.00,104.00 L817.00,81.00 L809.00,68.00 L789.00,47.00 L772.00,40.00 L728.00,40.00 L700.00,45.00 L656.00,69.00 L654.00,66.00 L641.00,83.00 L629.00,72.00 L601.00,59.00 Z" fill="#000000"/>
</svg>